<?xml version="1.0" encoding="UTF-8" standalone="yes"?>
<svg viewBox="0 0 222 160" xmlns="http://www.w3.org/2000/svg">
 <path d="m0 0v72h1c9.1846-10.05 30.934-14.658 37.142-26.528 4.332-8.2836 0.858-26.152 0.858-35.472h28v17l43-26-33-1h-77z" fill="#fbfbfc"/>
 <path d="m66 28v-17h-26c0 8.6395 3.3879 26.288-1.0278 33.787-5.3982 9.1671-23.384 15.144-31.968 21.354-4.6908 3.3936-10.054 8.8852-4.5702 14.541 3.8843 4.0064 9.5201 1.615 13.566-0.6975 10.952-6.2592 21.353-13.632 32-20.397 15.69-9.9705 31.251-20.15 47-30.012 4.3734-2.7384 11.475-9.8134 17-8.8017 7.523 1.3777 15.543 9.4991 22 13.429 18.849 11.473 37.83 23.397 56 35.913 6.202 4.2723 22.268 18.098 29.566 10.566 9.218-9.512-12.458-19.733-18.566-23.628-19.959-12.73-40.302-24.928-60-38.054-8.038-5.3558-19.502-15.95-29-17.932-4.677-0.97609-10.336 4.4232-14 6.7901-10.239 6.6143-20.847 15.31-32 20.142z" fill="#4fa901"/>
 <path d="m112 0v1l110 71v-72h-110z" fill="#fbfbfc"/>
 <path d="m39 10v36h1c0-10.387 3.0114-26.44-1-36z" fill="#90c95c"/>
 <path d="m40 10v1h26c0 4.5027-2.2299 15.879 3 17v-1l-2-17h-27z" fill="#77b435"/>
 <path d="m110.67 19.333l0.666 0.3334-0.666-0.3334z" fill="#b3e1a1"/>
 <path d="m20 77v1c2.1889-0.1198 3.9451-0.1656 5.9892 0.8133 18.234 8.7315-12.214 24.438-10.246 6.1913 0.2285-2.1185 1.3769-4.1076 2.2569-6.0046-7.293 2.6693-11.336 6.5949-17-1h-1v82h145c-1.278-3.75-1.75-5.958 1-9v9h76v-82h-1c-5.276 7.079-8.935 4.6528-16 2 0.568 2.2232 1.553 4.6702 1.138 6.9977-2.378 13.355-21.989 4.2333-13.565-5.784 1.981-2.3565 4.935-3.5258 7.427-5.2137-21.11-13.98-42.414-27.931-64-41.189-6.616-4.0633-17.034-14.282-25-14.373-8.271-0.0942-20.333 11.245-27 15.725-20.993 14.107-43.026 26.687-64 40.836z" fill="#fbfbfc"/>
 <path d="m102 24l1 1-1-1z" fill="#9bcc75"/>
 <path d="m122 26l1 1-1-1z" fill="#afcf76"/>
 <path d="m85 35l1 1-1-1z" fill="#b5de90"/>
 <path d="m104 40v1h4l-4-1z" fill="#d0f1dc"/>
 <path d="m100.67 41.333l0.666 0.3334-0.666-0.3334z" fill="#76c09d"/>
 <path d="m101 156h1c3.731-20.024 5.155-45.35-15-57l2-3c-13.051 2.6923-51.306 1.0067-40.414-22.867 2.8632-6.2759 13.174-5.9539 18.41-9.1412 5.0803-3.092 6.6499-8.8391 11.109-12.423 5.5357-4.4491 19.841-7.7081 26.895-7.0155 16.589 1.6289 23.36 29.388 39 35.447-5.157-7.3276-11.695-13.708-16.989-21-3.975-5.4754-7.764-12.824-14.05-15.95-8.827-4.3893-27.546-0.0276-35.946 4.483-5.8531 3.143-6.9195 10.075-12.059 13.957-5.7563 4.3482-24.597 4.7012-23.558 14.514 0.3386 3.198 2.3259 6.268 3.8889 8.9961 2.9004 5.0622 6.9675 11.183 12.716 13.272 10.304 3.7446 21.532 0.0799 30.981 7.2846 16.176 12.333 12.063 33.09 12.015 50.443z" fill="#027b3a"/>
 <path d="m108 41v1h3l-3-1z" fill="#3c996f"/>
 <path d="m96.667 42.333l0.6666 0.3334-0.6666-0.3334z" fill="#5bb089"/>
 <path d="m112 42l1 1-1-1z" fill="#76c09d"/>
 <path d="m90.667 43.333l0.6666 0.3334-0.6666-0.3334z" fill="#8cc2a4"/>
 <path d="m85 44v1h3l-3-1z" fill="#a9c7b7"/>
 <path d="m102 44v1h5l-5-1z" fill="#8cc2a4"/>
 <path d="m98.667 45.333l0.6666 0.3334-0.6666-0.3334z" fill="#95d1b0"/>
 <path d="m37.667 46.333l0.6666 0.3334-0.6666-0.3334z" fill="#9bcc75"/>
 <path d="m78.667 46.333l0.6666 0.3334-0.6666-0.3334z" fill="#71a98d"/>
 <path d="m92.667 46.333l0.6666 0.3334-0.6666-0.3334z" fill="#57a57a"/>
 <path d="m94.667 46.333l0.6666 0.3334-0.6666-0.3334z" fill="#95d1b0"/>
 <path d="m117 46l1 1-1-1z" fill="#8cb292"/>
 <path d="m88.667 47.333l0.6666 0.3334-0.6666-0.3334z" fill="#5bb089"/>
 <path d="m118 47l1 1-1-1z" fill="#8cb292"/>
 <path d="m84.667 48.333l0.6666 0.3334-0.6666-0.3334z" fill="#8cc2a4"/>
 <path d="m80.667 49.333l0.6666 0.3334-0.6666-0.3334z" fill="#95d1b0"/>
 <path d="m112 50l2 4-2-4z" fill="#57c190"/>
 <path d="m30 51l1 1-1-1z" fill="#afcf76"/>
 <path d="m113 54c1.204 14.738 10.736 35.771 2.836 49.977-4.095 7.364-10.782 1.58-14.456-2.981-6.9776-8.6598-4.38-18.798-4.38-28.996h-1c-1.4927 11.812-3.4804 26.822 6.043 35.826 3.702 3.5 9.65 8.236 14.729 4.431 4.256-3.189 3.228-9.608 3.228-14.257 0-12.397 1.084-33.836-7-44z" fill="#027b3a"/>
 <path d="m123 54l1 1-1-1m-4 1l1 1-1-1z" fill="#76c09d"/>
 <path d="m75 57v5l8-2-8-3z" fill="#027b3a"/>
 <path d="m19 58l1 1-1-1z" fill="#afcf76"/>
 <path d="m74.333 58.667l0.3334 0.6666-0.3334-0.6666z" fill="#71a98d"/>
 <path d="m126 58l1 1-1-1z" fill="#8cc2a4"/>
 <path d="m70 61l1 1-1-1z" fill="#8cb292"/>
 <path d="m98 61l-1 5 1-5z" fill="#a9c7b7"/>
 <path d="m128 61l1 1-1-1m-59 1l1 1-1-1z" fill="#71a98d"/>
 <path d="m75 62v1h4l-4-1z" fill="#95d1b0"/>
 <path d="m114.33 62.667l0.334 0.6666-0.334-0.6666z" fill="#8cc2a4"/>
 <path d="m116.33 62.667l0.334 0.6666-0.334-0.6666z" fill="#5bb089"/>
 <path d="m38 65l1 1-1-1z" fill="#9bcc75"/>
 <path d="m182.67 65.333l0.666 0.3334-0.666-0.3334z" fill="#b5de90"/>
 <path d="m59.667 66.333l0.6666 0.3334-0.6666-0.3334z" fill="#76c09d"/>
 <path d="m97 66l-1 6 1-6z" fill="#5bb089"/>
 <path d="m117.33 66.667l0.334 0.6666-0.334-0.6666z" fill="#71a98d"/>
 <path d="m128 66l1 1-1-1m-13 1v3h1l-1-3z" fill="#8cb292"/>
 <path d="m54.667 68.333l0.6666 0.3334-0.6666-0.3334z" fill="#b0dfbd"/>
 <path d="m48 72v4h1l-1-4z" fill="#a9c7b7"/>
 <path d="m97 72v8h1l-1-8z" fill="#d0f1dc"/>
 <path d="m118 72v3h1l-1-3z" fill="#5bb089"/>
 <path d="m95.333 74.667l0.3334 0.6666-0.3334-0.6666z" fill="#95d1b0"/>
 <path d="m116 74v6h1l-1-6m3.333 2.6667l0.334 0.6666-0.334-0.6666z" fill="#b0dfbd"/>
 <path d="m197 77v1l6 1-6-2z" fill="#d0f1dc"/>
 <path d="m22 77v1h3l-3-1z" fill="#cff3aa"/>
 <path d="M41 77C38.6164 79.0151 35.2164 80.0685 33.8588 83.1088C28.9679 94.0614 43.9871 96.017 51 94L41 77z" fill="#d0f1dc"/>
 <path d="m18 80l3-1-3 1z" fill="#b3e1a1"/>
 <path d="m21.019 78.668c-9.3021 2.7479-5.0509 17.688 4.9614 14.897 9.256-2.58 4.2366-17.615-4.9614-14.897z" fill="#4fa901"/>
 <path d="m119 78v4h1l-1-4z" fill="#57a57a"/>
 <path d="m195.11 78.746c-8.717 3.612-2.939 18.67 6.782 14.512 8.752-3.7437 2.293-18.272-6.782-14.512z" fill="#4fa901"/>
 <path d="m203 78l3 2-3-2z" fill="#cee1a3"/>
 <path d="m46.333 79.667l0.3334 0.6666-0.3334-0.6666z" fill="#71a98d"/>
 <path d="m147 79l5 2 2 7h-1v-2h-1c1e-3 5.0602-1.116 10.938 5 12v-1l-3-2c8.305 0 21.063 2.4268 28.826-0.5887 5.42-2.1056 7.328-10.942 1.946-14.232-8.749-5.3491-27.684-0.4447-37.772-1.179z" fill="#d0f1dc"/>
 <path d="m29 80l2 3-2-3z" fill="#74b14d"/>
 <path d="m94 80v14h1l-1-14z" fill="#cee6c4"/>
 <path d="m117 80v8h1l-1-8z" fill="#3c996f"/>
 <path d="m144 80l3 2-3-2z" fill="#158f5d"/>
 <path d="m147 82l1 1-1-1z" fill="#3c996f"/>
 <path d="m6 83v1h4l-4-1z" fill="#b3e1a1"/>
 <path d="m31 83v5h1l-1-5z" fill="#77b435"/>
 <path d="m96 83v7h1l-1-7z" fill="#76c09d"/>
 <path d="m190 83v5h1l-1-5z" fill="#74b14d"/>
 <path d="m211 83v1h5l-5-1z" fill="#b5de90"/>
 <path d="m15 84v4h1l-1-4z" fill="#7dc65a"/>
 <path d="m120 84v4h1l-1-4z" fill="#cee6c4"/>
 <path d="m130.67 84.333l0.666 0.3334-0.666-0.3334z" fill="#9bcc75"/>
 <path d="m146 89h6v-5l-6 5z" fill="#4fa901"/>
 <path d="m206 84v4h1l-1-4z" fill="#77b435"/>
 <path d="m130 85v15h-4v1h4l-3 2v1h6v-1l-2-2 1-14 4 1-6-3z" fill="#4fa901"/>
 <path d="m132.67 87.333l0.666 0.3334-0.666-0.3334z" fill="#9cd690"/>
 <path d="m31.333 88.667l0.3334 0.6666-0.3334-0.6666z" fill="#b3e1a1"/>
 <path d="m117 88v11h1l-1-11z" fill="#95d1b0"/>
 <path d="m120 88v16h1l-1-16z" fill="#5bb089"/>
 <path d="m131 88v4h1l-1-4z" fill="#b3e1a1"/>
 <path d="m135 88l5 3-5-3z" fill="#6fb524"/>
 <path d="m140 88v1h3l-3-1z" fill="#cee1a3"/>
 <path d="m145 88l-2 3c2.251-0.4732 3.118-0.8603 2-3z" fill="#6fb524"/>
 <path d="m190.33 88.667l0.334 0.6666-0.334-0.6666z" fill="#cff3aa"/>
 <path d="m140 89v1h4l-4-1z" fill="#319904"/>
 <path d="m151 89v8h1l-1-8z" fill="#77b435"/>
 <path d="m140 90v1h3l-3-1z" fill="#b3e1a1"/>
 <path d="m51 93l1 1-1-1z" fill="#76c09d"/>
 <path d="m97 93v3h1l-1-3z" fill="#57a57a"/>
 <path d="m21 94v1h4l-4-1z" fill="#9cd690"/>
 <path d="m196 94v1h4l-4-1z" fill="#b5de90"/>
 <path d="m53 95l1 1-1-1z" fill="#8cc2a4"/>
 <path d="m89 95v2l2-2h-2z" fill="#71a98d"/>
 <path d="m95.333 95.667l0.3334 0.6666-0.3334-0.6666z" fill="#8cb292"/>
 <path d="m132.33 95.667l0.334 0.6666-0.334-0.6666z" fill="#b0dfbd"/>
 <path d="m61.667 96.333l0.6666 0.3334-0.6666-0.3334z" fill="#95d1b0"/>
 <path d="m152 96l1 5h-4v1l9 1v-1l-4-1-2-5z" fill="#4fa901"/>
 <path d="m22 97v1h3l-3-1z" fill="#b5de90"/>
 <path d="m69 97v1h3l-3-1z" fill="#8cc2a4"/>
 <path d="m196 97v1h4l-4-1z" fill="#b5de90"/>
 <path d="m19.667 98.333l0.6666 0.3334-0.6666-0.3334z" fill="#74b14d"/>
 <path d="m21.019 98.576c-9.2318 2.6336-5.0932 17.973 4.9367 14.767 9.2026-2.941 5.0515-17.616-4.9367-14.767z" fill="#4fa901"/>
 <path d="m96 114c-6.5705-16.949-21.748-10.343-35-13.252-7.022-1.5406-16.66-5.3951-23.811-1.6083-4.6258 2.4493-5.9004 10.373-0.9105 13.207 4.6842 2.661 11.565 1.653 16.722 1.653h43z" fill="#d0f1dc"/>
 <path d="m148 99v1h5l-5-1z" fill="#7dc65a"/>
 <path d="m154 98v1l5 1-5-2z" fill="#90c95c"/>
 <path d="m154 100v1l6 2v1l-5-1v1l3 1-2 3c9.416 3.57 15.164 8.152 25.985 5.725 6.833-1.532 7.948-11.207 1.882-14.697-7.813-4.4954-21.696-0.0682-29.867 0.9722z" fill="#d0f1dc"/>
 <path d="m194.15 99.028c-8.202 4.8402-0.426 18.994 8.624 13.514 8.305-5.028 0.241-18.746-8.624-13.514z" fill="#4fa901"/>
 <path d="m62 99v1h5l-5-1z" fill="#5bb089"/>
 <path d="m147 99l-1 4h7v-1l-6-3z" fill="#cee1a3"/>
 <path d="m72 100v1h5l-5-1z" fill="#76c09d"/>
 <path d="m100 100l1 1-1-1z" fill="#8cb292"/>
 <path d="m125 100l-3 1v1l3-2m8 0l3 2-3-2z" fill="#afcf76"/>
 <path d="m148 100v1h5l-5-1z" fill="#fbfbfc"/>
 <path d="m129.33 101.67l0.334 0.666-0.334-0.666z" fill="#90c95c"/>
 <path d="m131 101v2h2v-2h-2z" fill="#cff3aa"/>
 <path d="m15.333 102.67l0.3334 0.666-0.3334-0.666z" fill="#cee1a3"/>
 <path d="m31.333 102.67l0.3334 0.666-0.3334-0.666z" fill="#b5de90"/>
 <path d="m116.33 102.67l0.334 0.666-0.334-0.666z" fill="#71a98d"/>
 <path d="m149 103v1l6-1h-6z" fill="#9bcc75"/>
 <path d="m157 104h3l-1-2-2 2m33.333-1.333l0.334 0.666-0.334-0.666m16 0l0.334 0.666-0.334-0.666z" fill="#b5de90"/>
 <path d="m126 103l-2 1v1l2-2z" fill="#89b53e"/>
 <path d="m133 103v1h3l-3-1z" fill="#7dc65a"/>
 <path d="m15 104v4h1l-1-4z" fill="#77b435"/>
 <path d="m31 104v4h1l-1-4z" fill="#7dc65a"/>
 <path d="m123 104l-1 2h2l-1-2z" fill="#b5de90"/>
 <path d="m127 107l7 5-3-6h4c-3.258-1.68-5.367-1.529-8 1z" fill="#74b14d"/>
 <path d="m153 104v1l5 1v-1l-5-1z" fill="#6fb524"/>
 <path d="m190 104v4h1l-1-4z" fill="#74b14d"/>
 <path d="m206 104v4h1l-1-4z" fill="#77b435"/>
 <path d="m115 105l1 1-1-1z" fill="#8cc2a4"/>
 <path d="m106 106l1 1-1-1z" fill="#76c09d"/>
 <path d="m126 106l-3 2v1l3-3m22.667 0.333l0.666 0.334-0.666-0.334z" fill="#afcf76"/>
 <path d="m150 106v1l3 1-3-2z" fill="#77b435"/>
 <path d="m158.67 106.33l0.666 0.334-0.666-0.334z" fill="#90c95c"/>
 <path d="m153 107v1c14.754 7.885 23.774 21.472 26 38h1c-0.33-15.908-9.667-36.295-27-39z" fill="#4fa901"/>
 <path d="m110 108v1h3l-3-1z" fill="#71a98d"/>
 <path d="m154 108l1 1-1-1z" fill="#afcf76"/>
 <path d="m105 110l1 1-1-1z" fill="#8cc2a4"/>
 <path d="m134 111v3h1l-1-3z" fill="#b3e1a1"/>
 <path d="m133 112l1 6h1l-2-6z" fill="#86b55a"/>
 <path d="m26.667 113.33l0.6666 0.334-0.6666-0.334z" fill="#cee1a3"/>
 <path d="m194.67 113.33l0.666 0.334-0.666-0.334z" fill="#90c95c"/>
 <path d="m21 114v1h5l-5-1z" fill="#d0f1dc"/>
 <path d="m20.667 117.33l0.6666 0.334-0.6666-0.334z" fill="#90c95c"/>
 <path d="m22.005 117.6c-10.138 2.068-6.5907 17.874 3.98 14.964 9.5501-2.63 5.0784-16.812-3.98-14.964m111-0.602c-1.95 8.533-2.558 14.153 2 22h1l-3-22z" fill="#4fa901"/>
 <path d="m170 118c5.033 8.361 5.95 17.442 17 14 1.629-12.901-4.842-15.358-17-14z" fill="#d0f1dc"/>
 <path d="m195.13 117.86c-8.717 3.921-2.818 18.306 6.823 14.535 9.608-3.759 2.065-18.533-6.823-14.535z" fill="#4fa901"/>
 <path d="m100 134l-1-16c-15.841 1.02-32.111 0-48 0-4.9477 0-13.714-1.645-16.82 3.344-3.6245 5.821 2.0641 12.248 7.8248 12.612 19.168 1.212 38.786 0.044 57.995 0.044z" fill="#d0f1dc"/>
 <path d="m102.33 118.67l0.334 0.666-0.334-0.666z" fill="#57c190"/>
 <path d="m134.33 118.67l0.334 0.666-0.334-0.666z" fill="#cff3aa"/>
 <path d="m30.333 120.67l0.3334 0.666-0.3334-0.666z" fill="#86b55a"/>
 <path d="m99.333 120.67l0.3334 0.666-0.3334-0.666z" fill="#8cb292"/>
 <path d="m191.33 120.67l0.334 0.666-0.334-0.666z" fill="#86b55a"/>
 <path d="m205.33 120.67l0.334 0.666-0.334-0.666z" fill="#7dc65a"/>
 <path d="m15 122v6h1l-1-6z" fill="#89b53e"/>
 <path d="m31.333 122.67l0.3334 0.666-0.3334-0.666z" fill="#9bcc75"/>
 <path d="m103.33 122.67l0.334 0.666-0.334-0.666z" fill="#95d1b0"/>
 <path d="m163 123v1l5-1h-5z" fill="#89b53e"/>
 <path d="m168 122l-2 1v1l2-2z" fill="#b3e1a1"/>
 <path d="m190 122v6h1l-1-6z" fill="#74b14d"/>
 <path d="m206.33 122.67l0.334 0.666-0.334-0.666z" fill="#9bcc75"/>
 <path d="m100.33 124.67l0.334 0.666-0.334-0.666z" fill="#8cc2a4"/>
 <path d="m104 128v16h1l-1-16z" fill="#a9c7b7"/>
 <path d="m165 129v1h7v-2l-7 1z" fill="#74b14d"/>
 <path d="m190 128l2 3-2-3z" fill="#cff3aa"/>
 <path d="m163 131h3l-1-2-2 2z" fill="#b0dfbd"/>
 <path d="m101 130v3h1l-1-3z" fill="#57a57a"/>
 <path d="m21 133v1h5l-5-1z" fill="#90c95c"/>
 <path d="m101 133v15h1l-1-15z" fill="#95d1b0"/>
 <path d="m196 133v1h5l-5-1z" fill="#90c95c"/>
 <path d="m132.33 134.67l0.334 0.666-0.334-0.666z" fill="#cff3aa"/>
 <path d="m168 134v1h5l-5-1z" fill="#9bcc75"/>
 <path d="m176.33 134.67l0.334 0.666-0.334-0.666z" fill="#9cd690"/>
 <path d="m178.33 134.67l0.334 0.666-0.334-0.666z" fill="#b5de90"/>
 <path d="m165 136v1l9-1h-9z" fill="#319904"/>
 <path d="m174 135l-6 1v1l6-2z" fill="#9bcc75"/>
 <path d="m163 138h3l-1-2-2 2z" fill="#90c95c"/>
 <path d="m182 136v17c9.527-2.924 5.877-12.018 0-17z" fill="#d0f1dc"/>
 <path d="m196 136v1h4l-4-1z" fill="#cee6c4"/>
 <path d="m19.667 137.33l0.6666 0.334-0.6666-0.334z" fill="#9bcc75"/>
 <path d="m21.019 137.58c-9.3478 2.636-4.963 17.57 4.9375 14.975 10.04-2.632 5.0594-17.794-4.9375-14.975z" fill="#4fa901"/>
 <path d="m99 155l2-1-1-17c-19.003 0-40.227-2.688-59 0.147-8.4632 1.279-10.241 10.78-3.25 15.535 4.2231 2.872 12.367 1.318 17.25 1.318 14.035 0 30.321-2.257 44 1z" fill="#d0f1dc"/>
 <path d="m195.06 137.75c-8.75 3.531-2.875 18.665 6.832 14.512 8.891-3.804 2.688-18.354-6.832-14.512z" fill="#4fa901"/>
 <path d="m201.67 137.33l0.666 0.334-0.666-0.334z" fill="#cee6c4"/>
 <path d="m136 138l-1 3 1-3z" fill="#9bcc75"/>
 <path d="m179.33 138.67l0.334 0.666-0.334-0.666z" fill="#afcf76"/>
 <path d="m136 140v4h1l-1-4z" fill="#4fa901"/>
 <path d="m153.33 140.67l0.334 0.666-0.334-0.666z" fill="#afcf76"/>
 <path d="m152 141c-2.952 6.134-2.519 12.656 4 16l-4-16z" fill="#4fa901"/>
 <path d="m15 142v5h1l-1-5z" fill="#89b53e"/>
 <path d="m137.33 142.67l0.334 0.666-0.334-0.666z" fill="#b5de90"/>
 <path d="m150.33 142.67l0.334 0.666-0.334-0.666z" fill="#9cd690"/>
 <path d="m178.33 142.67l0.334 0.666-0.334-0.666z" fill="#b3e1a1"/>
 <path d="m190 142v5h1l-1-5z" fill="#74b14d"/>
 <path d="m206 142v5h1l-1-5z" fill="#86b55a"/>
 <path d="m136 144v3h1l-1-3z" fill="#9bcc75"/>
 <path d="m137 144v6h1l-1-6z" fill="#319904"/>
 <path d="m149 144v6h1l-1-6z" fill="#90c95c"/>
 <path d="m180 144v3h1l-1-3z" fill="#b3e1a1"/>
 <path d="m151 145v4h1l-1-4z" fill="#7dc65a"/>
 <path d="m103 146v3h1l-1-3z" fill="#57a57a"/>
 <path d="m179 146l1 9h1l-2-9z" fill="#77b435"/>
 <path d="m138.33 147.67l0.334 0.666-0.334-0.666z" fill="#b5de90"/>
 <path d="m138 149v8h1l-1-8z" fill="#77b435"/>
 <path d="m152.33 150.67l0.334 0.666-0.334-0.666z" fill="#9bcc75"/>
 <path d="m144 151l1 3h1v-3h-2z" fill="#cee6c4"/>
 <path d="m19.667 152.33l0.6666 0.334-0.6666-0.334z" fill="#86b55a"/>
 <path d="m137 152v5h1l-1-5z" fill="#d0f1dc"/>
 <path d="m144 152v6h1l-1-6z" fill="#4fa901"/>
 <path d="m20 153v1h6l-6-1z" fill="#b5de90"/>
 <path d="m143 153v4h1l-1-4z" fill="#cee6c4"/>
 <path d="m195 153v1h5l-5-1z" fill="#b3e1a1"/>
 <path d="m100 154v5h1l-1-5z" fill="#71a98d"/>
 <path d="m180.33 155.67l0.334 0.666-0.334-0.666z" fill="#cee1a3"/>
 <path d="m156 156v2h2l-2-2z" fill="#9bcc75"/>
 <path d="m145 157l1 3-1-3z" fill="#cee1a3"/>
</svg>
